HIERARCHY
ROOT root
{
	OFFSET	0	13.1	24.9
	CHANNELS 6  Xposition Yposition Zposition Xrotation Yrotation Zrotation
	JOINT spine_1
	{
		OFFSET	0	9.99999	0
		CHANNELS 3  Xrotation Yrotation Zrotation
		JOINT spine_2
		{
			OFFSET	0	112	-10
			CHANNELS 3  Xrotation Yrotation Zrotation
			JOINT spine_3
			{
				OFFSET	0	206.5	19.3
				CHANNELS 3  Xrotation Yrotation Zrotation
				JOINT spine_4
				{
					OFFSET	0	110.4	14.6
					CHANNELS 3  Xrotation Yrotation Zrotation
					JOINT neck_1
					{
						OFFSET	0	71.8	-50.3
						CHANNELS 3  Xrotation Yrotation Zrotation
						JOINT neck_2
						{
							OFFSET	0	86.2	-25.8
							CHANNELS 3  Xrotation Yrotation Zrotation
							JOINT head_ee
							{
								OFFSET	0	179.8	-8.7
								CHANNELS 3  Xrotation Yrotation Zrotation
								End Site
								{
									OFFSET	1	0	0
								}
							}
						}
					}
					JOINT left_clavicle
					{
						OFFSET	-43.2	22.4	-70.8
						CHANNELS 3  Xrotation Yrotation Zrotation
						JOINT left_shoulder
						{
							OFFSET	-93.9	-5.79999	48.7
							CHANNELS 3  Xrotation Yrotation Zrotation
							JOINT left_elbow
							{
								OFFSET	-291.4	-30.8	15.2
								CHANNELS 3  Xrotation Yrotation Zrotation
								JOINT left_lowarm_twist
								{
									OFFSET	-110.7	-3.89999	13.6
									CHANNELS 3  Xrotation Yrotation Zrotation
									JOINT left_hand
									{
										OFFSET	-110.7	-3.89999	13.6
										CHANNELS 3  Xrotation Yrotation Zrotation
										JOINT left_ee
										{
											OFFSET	-80.8	-5.10001	12.1
											CHANNELS 3  Xrotation Yrotation Zrotation
											End Site
											{
												OFFSET	1	0	0
											}
										}
									}
								}
							}
						}
					}
					JOINT right_clavicle
					{
						OFFSET	43.2	22.4	-70.8
						CHANNELS 3  Xrotation Yrotation Zrotation
						JOINT right_shoulder
						{
							OFFSET	93.9	-5.79999	48.7
							CHANNELS 3  Xrotation Yrotation Zrotation
							JOINT right_elbow
							{
								OFFSET	291.4	-30.8	15.2
								CHANNELS 3  Xrotation Yrotation Zrotation
								JOINT right_lowarm_twist
								{
									OFFSET	110.7	-3.89999	13.6
									CHANNELS 3  Xrotation Yrotation Zrotation
									JOINT right_hand
									{
										OFFSET	110.7	-3.89999	13.6
										CHANNELS 3  Xrotation Yrotation Zrotation
										JOINT right_ee
										{
											OFFSET	80.8	-5.10001	12.1
											CHANNELS 3  Xrotation Yrotation Zrotation
											End Site
											{
												OFFSET	1	0	0
											}
										}
									}
								}
							}
						}
					}
				}
			}
		}
	}
	JOINT left_hip
	{
		OFFSET	-82.8	-127.5	0.300001
		CHANNELS 3  Xrotation Yrotation Zrotation
		JOINT left_knee
		{
			OFFSET	-28.2	-396.7	2.2
			CHANNELS 3  Xrotation Yrotation Zrotation
			JOINT left_ankle
			{
				OFFSET	-11.7	-411.3	35.4
				CHANNELS 3  Xrotation Yrotation Zrotation
				JOINT left_toes
				{
					OFFSET	0	-60	-88.6
					CHANNELS 3  Xrotation Yrotation Zrotation
					JOINT left_foot_ee
					{
						OFFSET	-22.5	-16.5	-42.2
						CHANNELS 3  Xrotation Yrotation Zrotation
						End Site
						{
							OFFSET	1	0	0
						}
					}
				}
			}
		}
	}
	JOINT right_hip
	{
		OFFSET	82.8	-127.5	0.300001
		CHANNELS 3  Xrotation Yrotation Zrotation
		JOINT right_knee
		{
			OFFSET	28.2	-396.7	2.2
			CHANNELS 3  Xrotation Yrotation Zrotation
			JOINT right_ankle
			{
				OFFSET	11.7	-411.3	35.4
				CHANNELS 3  Xrotation Yrotation Zrotation
				JOINT right_toes
				{
					OFFSET	0	-60	-88.6
					CHANNELS 3  Xrotation Yrotation Zrotation
					JOINT right_foot_ee
					{
						OFFSET	22.5	-16.5	-42.2
						CHANNELS 3  Xrotation Yrotation Zrotation
						End Site
						{
							OFFSET	1	0	0
						}
					}
				}
			}
		}
	}
}
MOTION
Frames: 5
Frame Time: 0.02
391.555 721.904 -1204.45 -175.67403943 -65.6743188726 -176.781773092 -1.44366 -0.181681 0.245769 -1.44365 -0.196951 0.23371 -1.44447 -0.246313 0.180942 -1.44446 -0.214645 0.217572 3.6265 15.7012 4.30119 4.19955 23.624 5.70573 -0.0 0.0 -0.0 6.08063 2.61285 11.8032 -11.0269 -17.0732 61.4668 0.936841 -24.8948 0.206795 17.4012 0.28151 -2.19649 1.23486 -4.51416 6.41935 -0.0 0.0 -0.0 9.89397 -2.95635 -19.2701 -17.9405 18.1336 -58.6613 0.744086 20.2338 -0.13277 22.1229 -0.241983 2.79813 0.940545 3.43071 -4.88023 0.0 0.0 0.0 16.2093 25.8984 -16.6836 -12.6778 0.311011 1.91677 -11.5763 -15.0189 1.88907 24.0193 -0.0 -0.0 -0.0 0.0 -0.0 -1.53348 -3.72538 -1.77146 6.42151 0.317172 0.933528 11.1129 2.82635 1.6009 -5.60614 0.0 0.0 0.0 0.0 0.0 
414.732588315 722.885 -1207.4270287 -173.271174083 -66.1841114548 -174.07166826 -1.13509 0.00394632 -0.107235 -1.13509 0.010762 -0.106767 -1.1351 0.0349779 -0.101447 -1.13512 0.0185173 -0.105698 2.16057 15.234 3.43518 2.68031 23.91 4.89952 -0.0 0.0 -0.0 4.33244 5.30936 8.56015 -21.5411 -14.989 63.0635 0.945414 -25.0947 0.210418 16.7944 0.282991 -2.119 1.70781 -4.80771 9.51461 -0.0 0.0 -0.0 10.4695 -0.650911 -20.5903 -12.5915 16.9058 -55.9391 0.77999 21.1257 -0.14545 22.7411 -0.233141 2.8766 1.45425 7.3262 -6.7231 0.0 0.0 0.0 17.2345 25.9524 -12.414 -13.6478 0.317221 2.06548 -5.01639 -20.5781 0.849694 24.0568 -0.0 -0.0 -0.0 0.0 -0.0 0.579817 -2.14996 -1.84831 -0.0107711 -0.000443525 -0.00159342 10.6491 1.84718 1.53208 -4.12479 0.0 0.0 0.0 0.0 0.0 
421.381211036 722.316 -1209.95313513 -173.529456527 -65.3559679014 -173.975171834 -1.03102 -0.0336041 -0.121049 -1.03102 -0.0258333 -0.122942 -1.03095 0.00284349 -0.125595 -1.03097 -0.0170276 -0.124468 2.10986 15.5864 3.98531 2.63535 24.0833 5.53661 -0.0 0.0 -0.0 4.47367 4.79091 8.80598 -23.3636 -14.6318 63.2544 0.944263 -25.0679 0.20993 16.9997 0.282582 -2.14523 1.7262 -4.76165 9.65957 -0.0 0.0 -0.0 10.4002 -0.94473 -20.429 -12.489 17.1952 -55.6416 0.784628 21.2401 -0.147126 22.7182 -0.233484 2.87369 1.45252 7.67994 -6.56059 0.0 0.0 0.0 16.8255 26.4851 -12.6418 -13.6969 0.317469 2.07301 -3.93606 -20.9372 0.667467 24.1731 -0.0 -0.0 -0.0 0.0 -0.0 0.473526 -2.75691 -2.12584 -0.0864701 -0.00355071 -0.0127946 10.4529 0.717613 1.50019 -4.01626 0.0 0.0 0.0 0.0 0.0 
467.006234573 712.942 -1236.75283861 -171.042024088 -64.7945375515 -169.857571878 -0.611171 -0.157235 -0.5348 -0.61102 -0.122886 -0.543722 -0.609722 6.62083e-05 -0.557435 -0.610145 -0.0879697 -0.55045 0.882281 16.1846 5.25534 1.3703 24.4063 7.13721 -0.0 0.0 -0.0 6.25948 3.59391 12.1475 -27.2453 -16.1045 62.3279 0.656224 -18.0081 0.103984 15.3944 0.283275 -1.94019 1.8017 -4.48014 10.2937 -0.0 0.0 -0.0 10.0755 -6.49849 -19.3541 -14.9946 20.3578 -53.4238 1.11282 28.8653 -0.286409 19.2466 -0.271966 2.432 1.70078 12.6097 -6.10511 0.0 0.0 0.0 14.1732 28.9009 -11.6017 -10.2486 0.28442 1.54502 1.24592 -23.7157 -0.214524 21.5933 -0.0 -0.0 -0.0 0.0 -0.0 1.76131 -5.18423 -2.65658 -4.0946 -0.146798 -0.611117 13.4286 -6.56495 1.88535 -2.53752 0.0 0.0 0.0 0.0 0.0 
491.665429953 712.057 -1256.27126061 -171.167308458 -63.5178072897 -171.248852458 -0.562177 0.00377028 -0.133502 -0.562167 0.0122577 -0.132991 -0.562191 0.0411841 -0.127046 -0.562213 0.0206027 -0.131956 2.60359 16.8542 2.75775 3.32937 27.2398 4.1488 -0.0 0.0 -0.0 7.1284 -1.48642 13.8458 -20.3475 -16.4475 64.3151 0.292375 -8.24126 0.0210636 15.9241 0.283682 -2.00785 2.22792 -1.28056 14.5457 -0.0 0.0 -0.0 9.55068 -5.80697 -18.3897 -17.5815 22.0352 -52.2939 1.04417 27.3496 -0.25406 15.6656 -0.283561 1.97484 2.34241 14.9952 -9.37891 0.0 0.0 0.0 15.6749 32.6478 -9.90332 -15.2436 0.321959 2.31027 4.92333 -23.6432 -0.836968 22.72 -0.0 -0.0 -0.0 0.0 -0.0 2.54078 -6.13475 -0.571433 -5.48624 -0.186691 -0.820959 16.8289 -14.8191 2.34981 -1.61547 0.0 0.0 0.0 0.0 0.0 
